# xmcd CD database file
#
# Track frame offsets:
#	150
#	20466
#	36788
#	58795
#	77948
#	93724
#	116451
#	138828
#	162892
#
# Disc length: 2509 seconds
#
# Revision: 0
# Processed by: cddbd v1.5.1PL0 Copyright (c) Steve Scherf et al.
# Submitted via: CDex 1.50
#
DISCID=7009cb09
DTITLE=Lleuwen Steffan - Duw a Wyr God Only Knows
DYEAR=2005
DGENRE=Jazz
TTITLE0=Ebeneser
TTITLE1=Durrow
TTITLE2=Yn y Glyn - Maracesh
TTITLE3=Gwahoddiad
TTITLE4=Bryniau Cassia
TTITLE5=Duw a Wyr - God Only Knows
TTITLE6=Pen Calfaria
TTITLE7=Henryd - Rhiwlas
TTITLE8=Mil Harddach
EXTD=YEAR: 2005
EXTT0=
EXTT1=
EXTT2=
EXTT3=
EXTT4=
EXTT5=
EXTT6=
EXTT7=
EXTT8=
PLAYORDER=
